<svg id="diagram-svg" width="1040.790283203125" xmlns="http://www.w3.org/2000/svg" class="flowchart" style="max-width: none;" viewBox="0 -49 1040.790283203125 684.5" role="graphics-document document" aria-roledescription="flowchart-v2" height="684.5"><style>#diagram-svg{font-family:Arial,sans-serif;font-size:20px;fill:#152c40;}@keyframes edge-animation-frame{from{stroke-dashoffset:0;}}@keyframes dash{to{stroke-dashoffset:0;}}#diagram-svg .edge-animation-slow{stroke-dasharray:9,5!important;stroke-dashoffset:900;animation:dash 50s linear infinite;stroke-linecap:round;}#diagram-svg .edge-animation-fast{stroke-dasharray:9,5!important;stroke-dashoffset:900;animation:dash 20s linear infinite;stroke-linecap:round;}#diagram-svg .error-icon{fill:hsl(27.2727272727, 44%, 100%);}#diagram-svg .error-text{fill:#000000;stroke:#000000;}#diagram-svg .edge-thickness-normal{stroke-width:1px;}#diagram-svg .edge-thickness-thick{stroke-width:3.5px;}#diagram-svg .edge-pattern-solid{stroke-dasharray:0;}#diagram-svg .edge-thickness-invisible{stroke-width:0;fill:none;}#diagram-svg .edge-pattern-dashed{stroke-dasharray:3;}#diagram-svg .edge-pattern-dotted{stroke-dasharray:2;}#diagram-svg .marker{fill:#52616c;stroke:#52616c;}#diagram-svg .marker.cross{stroke:#52616c;}#diagram-svg svg{font-family:Arial,sans-serif;font-size:20px;}#diagram-svg p{margin:0;}#diagram-svg .label{font-family:Arial,sans-serif;color:#152c40;}#diagram-svg .cluster-label text{fill:#000000;}#diagram-svg .cluster-label span{color:#000000;}#diagram-svg .cluster-label span p{background-color:transparent;}#diagram-svg .label text,#diagram-svg span{fill:#152c40;color:#152c40;}#diagram-svg .node rect,#diagram-svg .node circle,#diagram-svg .node ellipse,#diagram-svg .node polygon,#diagram-svg .node path{fill:#edf3f8;stroke:#526b80;stroke-width:1px;}#diagram-svg .rough-node .label text,#diagram-svg .node .label text,#diagram-svg .image-shape .label,#diagram-svg .icon-shape .label{text-anchor:middle;}#diagram-svg .node .katex path{fill:#000;stroke:#000;stroke-width:1px;}#diagram-svg .rough-node .label,#diagram-svg .node .label,#diagram-svg .image-shape .label,#diagram-svg .icon-shape .label{text-align:center;}#diagram-svg .node.clickable{cursor:pointer;}#diagram-svg .root .anchor path{fill:#52616c!important;stroke-width:0;stroke:#52616c;}#diagram-svg .arrowheadPath{fill:#0b0b0b;}#diagram-svg .edgePaths .path{stroke:#52616c;stroke-width:1px;}#diagram-svg .flowchart-link{stroke:#52616c;fill:none;}#diagram-svg .edgeLabel{background-color:#ffffff;text-align:center;}#diagram-svg .edgeLabel p{background-color:#ffffff;}#diagram-svg .edgeLabel rect{opacity:0.5;background-color:#ffffff;fill:#ffffff;}#diagram-svg .labelBkg{background-color:rgba(255, 255, 255, 0.5);}#diagram-svg .cluster rect{fill:#ffffff;stroke:#c2ccd4;stroke-width:1px;}#diagram-svg .cluster text{fill:#000000;}#diagram-svg .cluster span{color:#000000;}#diagram-svg .node .collapsed-indicator{fill:#c2ccd4;stroke:none;opacity:0.6;}#diagram-svg .node .collapsed-separator{stroke:#c2ccd4;stroke-width:0.75px;}#diagram-svg div.mermaidTooltip{position:absolute;text-align:center;max-width:200px;padding:2px;font-family:Arial,sans-serif;font-size:12px;background:hsl(27.2727272727, 44%, 100%);border:1px solid hsl(27.2727272727, 4%, 90%);border-radius:2px;pointer-events:none;z-index:100;}#diagram-svg .flowchartTitleText{text-anchor:middle;font-size:18px;fill:#152c40;}#diagram-svg rect.text{fill:none;stroke-width:0;}#diagram-svg .icon-shape,#diagram-svg .image-shape{background-color:#ffffff;text-align:center;}#diagram-svg .icon-shape p,#diagram-svg .image-shape p{background-color:#ffffff;padding:2px;}#diagram-svg .icon-shape .label rect,#diagram-svg .image-shape .label rect{opacity:0.5;background-color:#ffffff;fill:#ffffff;}#diagram-svg .label-icon{display:inline-block;height:1em;overflow:visible;vertical-align:-0.125em;}#diagram-svg .node .label-icon path{fill:currentColor;stroke:revert;stroke-width:revert;}#diagram-svg .node .neo-node{stroke:#526b80;}#diagram-svg [data-look="neo"].node rect,#diagram-svg [data-look="neo"].cluster rect,#diagram-svg [data-look="neo"].node polygon{stroke:url(#diagram-svg-gradient);filter:drop-shadow( 1px 2px 2px rgba(185,185,185,1));}#diagram-svg [data-look="neo"].swimlane.cluster rect{filter:none;}#diagram-svg [data-look="neo"].node path{stroke:url(#diagram-svg-gradient);stroke-width:1px;}#diagram-svg [data-look="neo"].node .outer-path{filter:drop-shadow( 1px 2px 2px rgba(185,185,185,1));}#diagram-svg [data-look="neo"].node .neo-line path{stroke:#526b80;filter:none;}#diagram-svg [data-look="neo"].node circle{stroke:url(#diagram-svg-gradient);filter:drop-shadow( 1px 2px 2px rgba(185,185,185,1));}#diagram-svg [data-look="neo"].node circle .state-start{fill:#000000;}#diagram-svg [data-look="neo"].icon-shape .icon{fill:url(#diagram-svg-gradient);filter:drop-shadow( 1px 2px 2px rgba(185,185,185,1));}#diagram-svg [data-look="neo"].icon-shape .icon-neo path{stroke:url(#diagram-svg-gradient);filter:drop-shadow( 1px 2px 2px rgba(185,185,185,1));}#diagram-svg :root{--mermaid-font-family:Arial,sans-serif;}#diagram-svg .context rect{fill:rgb(255, 255, 255)!important;stroke:rgb(82, 107, 128)!important;color:rgb(21, 44, 64)!important;}#diagram-svg .context polygon{fill:rgb(255, 255, 255)!important;stroke:rgb(82, 107, 128)!important;color:rgb(21, 44, 64)!important;}#diagram-svg .context ellipse{fill:rgb(255, 255, 255)!important;stroke:rgb(82, 107, 128)!important;color:rgb(21, 44, 64)!important;}#diagram-svg .context circle{fill:rgb(255, 255, 255)!important;stroke:rgb(82, 107, 128)!important;color:rgb(21, 44, 64)!important;}#diagram-svg .context path{fill:rgb(255, 255, 255)!important;stroke:rgb(82, 107, 128)!important;color:rgb(21, 44, 64)!important;}#diagram-svg .context tspan{fill:rgb(21, 44, 64)!important;}#diagram-svg .check rect{fill:rgb(245, 245, 245)!important;stroke:rgb(104, 115, 123)!important;color:rgb(37, 53, 65)!important;}#diagram-svg .check polygon{fill:rgb(245, 245, 245)!important;stroke:rgb(104, 115, 123)!important;color:rgb(37, 53, 65)!important;}#diagram-svg .check ellipse{fill:rgb(245, 245, 245)!important;stroke:rgb(104, 115, 123)!important;color:rgb(37, 53, 65)!important;}#diagram-svg .check circle{fill:rgb(245, 245, 245)!important;stroke:rgb(104, 115, 123)!important;color:rgb(37, 53, 65)!important;}#diagram-svg .check path{fill:rgb(245, 245, 245)!important;stroke:rgb(104, 115, 123)!important;color:rgb(37, 53, 65)!important;}#diagram-svg .check tspan{fill:rgb(37, 53, 65)!important;}</style><g><marker id="diagram-svg_flowchart-v2-pointEnd" class="marker flowchart-v2" viewBox="0 0 10 10" refX="5" refY="5" markerUnits="userSpaceOnUse" markerWidth="8" markerHeight="8" orient="auto"><path d="M 0 0 L 10 5 L 0 10 z" class="arrowMarkerPath" style="stroke-width: 1; stroke-dasharray: 1, 0;"></path></marker><marker id="diagram-svg_flowchart-v2-pointStart" class="marker flowchart-v2" viewBox="0 0 10 10" refX="4.5" refY="5" markerUnits="userSpaceOnUse" markerWidth="8" markerHeight="8" orient="auto"><path d="M 0 5 L 10 10 L 10 0 z" class="arrowMarkerPath" style="stroke-width: 1; stroke-dasharray: 1, 0;"></path></marker><marker id="diagram-svg_flowchart-v2-pointEnd-margin" class="marker flowchart-v2" viewBox="0 0 11.5 14" refX="11.5" refY="7" markerUnits="userSpaceOnUse" markerWidth="10.5" markerHeight="14" orient="auto"><path d="M 0 0 L 11.5 7 L 0 14 z" class="arrowMarkerPath" style="stroke-width: 0; stroke-dasharray: 1, 0;"></path></marker><marker id="diagram-svg_flowchart-v2-pointStart-margin" class="marker flowchart-v2" viewBox="0 0 11.5 14" refX="1" refY="7" markerUnits="userSpaceOnUse" markerWidth="11.5" markerHeight="14" orient="auto"><polygon points="0,7 11.5,14 11.5,0" class="arrowMarkerPath" style="stroke-width: 0; stroke-dasharray: 1, 0;"></polygon></marker><marker id="diagram-svg_flowchart-v2-circleEnd" class="marker flowchart-v2" viewBox="0 0 10 10" refX="11" refY="5" markerUnits="userSpaceOnUse" markerWidth="11" markerHeight="11" orient="auto"><circle cx="5" cy="5" r="5" class="arrowMarkerPath" style="stroke-width: 1; stroke-dasharray: 1, 0;"></circle></marker><marker id="diagram-svg_flowchart-v2-circleStart" class="marker flowchart-v2" viewBox="0 0 10 10" refX="-1" refY="5" markerUnits="userSpaceOnUse" markerWidth="11" markerHeight="11" orient="auto"><circle cx="5" cy="5" r="5" class="arrowMarkerPath" style="stroke-width: 1; stroke-dasharray: 1, 0;"></circle></marker><marker id="diagram-svg_flowchart-v2-circleEnd-margin" class="marker flowchart-v2" viewBox="0 0 10 10" refY="5" refX="12.25" markerUnits="userSpaceOnUse" markerWidth="14" markerHeight="14" orient="auto"><circle cx="5" cy="5" r="5" class="arrowMarkerPath" style="stroke-width: 0; stroke-dasharray: 1, 0;"></circle></marker><marker id="diagram-svg_flowchart-v2-circleStart-margin" class="marker flowchart-v2" viewBox="0 0 10 10" refX="-2" refY="5" markerUnits="userSpaceOnUse" markerWidth="14" markerHeight="14" orient="auto"><circle cx="5" cy="5" r="5" class="arrowMarkerPath" style="stroke-width: 0; stroke-dasharray: 1, 0;"></circle></marker><marker id="diagram-svg_flowchart-v2-crossEnd" class="marker cross flowchart-v2" viewBox="0 0 11 11" refX="12" refY="5.2" markerUnits="userSpaceOnUse" markerWidth="11" markerHeight="11" orient="auto"><path d="M 1,1 l 9,9 M 10,1 l -9,9" class="arrowMarkerPath" style="stroke-width: 2; stroke-dasharray: 1, 0;"></path></marker><marker id="diagram-svg_flowchart-v2-crossStart" class="marker cross flowchart-v2" viewBox="0 0 11 11" refX="-1" refY="5.2" markerUnits="userSpaceOnUse" markerWidth="11" markerHeight="11" orient="auto"><path d="M 1,1 l 9,9 M 10,1 l -9,9" class="arrowMarkerPath" style="stroke-width: 2; stroke-dasharray: 1, 0;"></path></marker><marker id="diagram-svg_flowchart-v2-crossEnd-margin" class="marker cross flowchart-v2" viewBox="0 0 15 15" refX="17.7" refY="7.5" markerUnits="userSpaceOnUse" markerWidth="12" markerHeight="12" orient="auto"><path d="M 1,1 L 14,14 M 1,14 L 14,1" class="arrowMarkerPath" style="stroke-width: 2.5;"></path></marker><marker id="diagram-svg_flowchart-v2-crossStart-margin" class="marker cross flowchart-v2" viewBox="0 0 15 15" refX="-3.5" refY="7.5" markerUnits="userSpaceOnUse" markerWidth="12" markerHeight="12" orient="auto"><path d="M 1,1 L 14,14 M 1,14 L 14,1" class="arrowMarkerPath" style="stroke-width: 2.5; stroke-dasharray: 1, 0;"></path></marker><g class="root"><g class="clusters"></g><g class="edgePaths"><path d="M520.395,365.5L520.395,369.5L520.395,373.5" id="diagram-svg-L_routes_assessment_0" class="edge-thickness-invisible edge-pattern-solid" style=";" data-edge="true" data-et="edge" data-id="L_routes_assessment_0" data-points="W3sieCI6NTIwLjM5NTE0MTYwMTU2MjUsInkiOjM2NS41fSx7IngiOjUyMC4zOTUxNDE2MDE1NjI1LCJ5IjozNjkuNX0seyJ4Ijo1MjAuMzk1MTQxNjAxNTYyNSwieSI6MzczLjV9XQ==" data-look="classic"></path></g><g class="edgeLabels"><g class="edgeLabel"><g class="label" data-id="L_routes_assessment_0" transform="translate(0, 0)"><text y="-10.1" text-anchor="middle"><tspan class="text-outer-tspan row" x="0" y="-0.1em" dy="1.1em" text-anchor="middle"></tspan></text></g></g><g><rect class="background" style="stroke: none"></rect></g></g><g class="nodes"><g class="root" transform="translate(90.9967041015625, 372.5)"><g class="clusters"><g class="cluster" id="diagram-svg-assessment" data-look="classic"><rect style="" x="8" y="1" width="842.796875" height="254"></rect><g class="cluster-label" transform="translate(161.9453125, 5)"><g><rect class="background" style="stroke: none"></rect><text y="-10.1" style=""><tspan class="text-outer-tspan row" x="0" y="-0.1em" dy="1.1em"><tspan font-style="normal" class="text-inner-tspan" font-weight="normal">B.</tspan><tspan font-style="normal" class="text-inner-tspan" font-weight="normal"> Independent</tspan><tspan font-style="normal" class="text-inner-tspan" font-weight="normal"> checks</tspan><tspan font-style="normal" class="text-inner-tspan" font-weight="normal"> and</tspan><tspan font-style="normal" class="text-inner-tspan" font-weight="normal"> evaluation</tspan><tspan font-style="normal" class="text-inner-tspan" font-weight="normal"> of</tspan><tspan font-style="normal" class="text-inner-tspan" font-weight="normal"> each</tspan><tspan font-style="normal" class="text-inner-tspan" font-weight="normal"> predicted</tspan><tspan font-style="normal" class="text-inner-tspan" font-weight="normal"> title</tspan></tspan></text></g></g></g></g><g class="edgePaths"><path d="M162.703,133.5L162.703,150L249.214,165.782" id="diagram-svg-L_promptcheck_score_0" class="edge-thickness-normal edge-pattern-solid edge-thickness-normal edge-pattern-solid flowchart-link" style=";" data-edge="true" data-et="edge" data-id="L_promptcheck_score_0" data-points="W3sieCI6MTYyLjcwMzEyNSwieSI6MTMzLjV9LHsieCI6MTYyLjcwMzEyNSwieSI6MTUwfSx7IngiOjI1My4xNDg2NjA3MTQyODU3LCJ5IjoxNjYuNX1d" data-look="classic" marker-end="url(#diagram-svg_flowchart-v2-pointEnd)"></path><path d="M450.484,133.5L450.484,150L450.484,162.5" id="diagram-svg-L_strictcheck_score_0" class="edge-thickness-normal edge-pattern-solid edge-thickness-normal edge-pattern-solid flowchart-link" style=";" data-edge="true" data-et="edge" data-id="L_strictcheck_score_0" data-points="W3sieCI6NDUwLjQ4NDM3NSwieSI6MTMzLjV9LHsieCI6NDUwLjQ4NDM3NSwieSI6MTUwfSx7IngiOjQ1MC40ODQzNzUsInkiOjE2Ni41fV0=" data-look="classic" marker-end="url(#diagram-svg_flowchart-v2-pointEnd)"></path><path d="M717.18,133.5L717.18,150L637.286,165.727" id="diagram-svg-L_awarecheck_score_0" class="edge-thickness-normal edge-pattern-solid edge-thickness-normal edge-pattern-solid flowchart-link" style=";" data-edge="true" data-et="edge" data-id="L_awarecheck_score_0" data-points="W3sieCI6NzE3LjE3OTY4NzUsInkiOjEzMy41fSx7IngiOjcxNy4xNzk2ODc1LCJ5IjoxNTB9LHsieCI6NjMzLjM2MTE2MDcxNDI4NTcsInkiOjE2Ni41fV0=" data-look="classic" marker-end="url(#diagram-svg_flowchart-v2-pointEnd)"></path></g><g class="edgeLabels"><g class="edgeLabel"><g class="label" data-id="L_promptcheck_score_0" transform="translate(0, 0)"><text y="-10.1" text-anchor="middle"><tspan class="text-outer-tspan row" x="0" y="-0.1em" dy="1.1em" text-anchor="middle"></tspan></text></g></g><g><rect class="background" style="stroke: none"></rect></g><g class="edgeLabel"><g class="label" data-id="L_strictcheck_score_0" transform="translate(0, 0)"><text y="-10.1" text-anchor="middle"><tspan class="text-outer-tspan row" x="0" y="-0.1em" dy="1.1em" text-anchor="middle"></tspan></text></g></g><g><rect class="background" style="stroke: none"></rect></g><g class="edgeLabel"><g class="label" data-id="L_awarecheck_score_0" transform="translate(0, 0)"><text y="-10.1" text-anchor="middle"><tspan class="text-outer-tspan row" x="0" y="-0.1em" dy="1.1em" text-anchor="middle"></tspan></text></g></g><g><rect class="background" style="stroke: none"></rect></g></g><g class="nodes"><g class="node default check" id="diagram-svg-flowchart-promptcheck-22" data-look="classic" transform="translate(162.703125, 82.5)"><rect class="basic label-container" style="fill:#f5f5f5 !important;stroke:#68737b !important" x="-138.703125" y="-51" width="277.40625" height="102"></rect><g class="label" style="color:#253541 !important" transform="translate(-126.703125, -45)"><rect></rect><foreignObject width="253.40625" height="90"><div style="color: rgb(37, 53, 65) !important; display: table-cell; white-space: nowrap; line-height: 1.5; max-width: 600px; text-align: center;" xmlns="http://www.w3.org/1999/xhtml"><span style="color:#253541 !important" class="nodeLabel"><p>Prompt check (deterministic)<br />Prompt + source title<br />Normalized title absent</p></span></div></foreignObject></g></g><g class="node default" id="diagram-svg-flowchart-score-25" data-look="classic" transform="translate(450.484375, 202.5)"><rect class="basic label-container" style="" x="-235.4375" y="-36" width="470.875" height="72"></rect><g class="label" style="" transform="translate(-223.4375, -30)"><rect></rect><foreignObject width="446.875" height="60"><div xmlns="http://www.w3.org/1999/xhtml" style="display: table-cell; white-space: nowrap; line-height: 1.5; max-width: 600px; text-align: center;"><span class="nodeLabel"><p>Title match + applicable checks<br />Strict and title-aware are alternative image policies</p></span></div></foreignObject></g></g><g class="node default check" id="diagram-svg-flowchart-strictcheck-23" data-look="classic" transform="translate(450.484375, 82.5)"><rect class="basic label-container" style="fill:#f5f5f5 !important;stroke:#68737b !important" x="-137.078125" y="-51" width="274.15625" height="102"></rect><g class="label" style="color:#253541 !important" transform="translate(-125.078125, -45)"><rect></rect><foreignObject width="250.15625" height="90"><div style="color: rgb(37, 53, 65) !important; display: table-cell; white-space: nowrap; line-height: 1.5; max-width: 600px; text-align: center;" xmlns="http://www.w3.org/1999/xhtml"><span style="color:#253541 !important" class="nodeLabel"><p>Strict image check<br />Image only<br />No meaningful readable text</p></span></div></foreignObject></g></g><g class="node default check" id="diagram-svg-flowchart-awarecheck-24" data-look="classic" transform="translate(717.1796875, 82.5)"><rect class="basic label-container" style="fill:#f5f5f5 !important;stroke:#68737b !important" x="-117.6171875" y="-51" width="235.234375" height="102"></rect><g class="label" style="color:#253541 !important" transform="translate(-105.6171875, -45)"><rect></rect><foreignObject width="211.234375" height="90"><div style="color: rgb(37, 53, 65) !important; display: table-cell; white-space: nowrap; line-height: 1.5; max-width: 600px; text-align: center;" xmlns="http://www.w3.org/1999/xhtml"><span style="color:#253541 !important" class="nodeLabel"><p>Title-aware check<br />Image + source title<br />No readable source title</p></span></div></foreignObject></g></g></g></g><g class="root" transform="translate(0, 14)"><g class="clusters"><g class="cluster" id="diagram-svg-routes" data-look="classic"><rect style="" x="8" y="1" width="1024.7903060913086" height="350.5"></rect><g class="cluster-label" transform="translate(373.1295280456543, 5)"><g><rect class="background" style="stroke: none"></rect><text y="-10.1" style=""><tspan class="text-outer-tspan row" x="0" y="-0.1em" dy="1.1em"><tspan font-style="normal" class="text-inner-tspan" font-weight="normal">A.</tspan><tspan font-style="normal" class="text-inner-tspan" font-weight="normal"> Generation</tspan><tspan font-style="normal" class="text-inner-tspan" font-weight="normal"> and</tspan><tspan font-style="normal" class="text-inner-tspan" font-weight="normal"> reconstruction</tspan></tspan></text></g></g></g></g><g class="edgePaths"><path d="M109.743,181.742L139.435,158.5L162.474,158.5" id="diagram-svg-L_source_pg_0" class="edge-thickness-normal edge-pattern-solid edge-thickness-normal edge-pattern-solid flowchart-link" style=";" data-edge="true" data-et="edge" data-id="L_source_pg_0" data-points="W3sieCI6MTA5Ljc0MjUyNzE3Mzk4Njc3LCJ5IjoxODEuNzQxNjAxNTk1MzQzOH0seyJ4IjoxMzkuNDM0ODM3MzQxMzA4NiwieSI6MTU4LjV9LHsieCI6MTY2LjQ3Mzg5OTg0MTMwODYsInkiOjE1OC41fV0=" data-look="classic" marker-end="url(#diagram-svg_flowchart-v2-pointEnd)"></path><path d="M97.38,240.75L139.435,299.5L151.935,299.5" id="diagram-svg-L_source_rating_0" class="edge-thickness-normal edge-pattern-solid edge-thickness-normal edge-pattern-solid flowchart-link" style=";" data-edge="true" data-et="edge" data-id="L_source_rating_0" data-points="W3sieCI6OTcuMzgwMDY3MTAxMzk2MjQsInkiOjI0MC43NDk5MzI3MzE0NDYyMn0seyJ4IjoxMzkuNDM0ODM3MzQxMzA4NiwieSI6Mjk5LjV9LHsieCI6MTU1LjkzNDgzNzM0MTMwODYsInkiOjI5OS41fV0=" data-look="classic" marker-end="url(#diagram-svg_flowchart-v2-pointEnd)"></path><path d="M285.005,179.304L345.389,200.5L391.234,200.5" id="diagram-svg-L_pg_ig_0" class="edge-thickness-normal edge-pattern-solid edge-thickness-normal edge-pattern-solid flowchart-link" style=";" data-edge="true" data-et="edge" data-id="L_pg_ig_0" data-points="W3sieCI6Mjg1LjAwNTE0OTg0MTMwODYsInkiOjE3OS4zMDM3NDc5Mjg5MjY0N30seyJ4IjozNDUuMzg4OTM4OTAzODA4NiwieSI6MjAwLjV9LHsieCI6Mzk1LjIzMzY2NTQ2NjMwODYsInkiOjIwMC41fV0=" data-look="classic" marker-end="url(#diagram-svg_flowchart-v2-pointEnd)"></path><path d="M285.005,116.893L345.389,74.5L454.499,74.5L563.61,74.5L673.814,74.5L769.013,74.5L817.642,74.5" id="diagram-svg-L_pg_prompttg_0" class="edge-thickness-normal edge-pattern-solid edge-thickness-normal edge-pattern-solid flowchart-link" style=";" data-edge="true" data-et="edge" data-id="L_pg_prompttg_0" data-points="W3sieCI6Mjg1LjAwNTE0OTg0MTMwODYsInkiOjExNi44OTI1MDQxNDIxNDcwNn0seyJ4IjozNDUuMzg4OTM4OTAzODA4NiwieSI6NzQuNX0seyJ4Ijo0NTQuNDk5MjkwNDY2MzA4NiwieSI6NzQuNX0seyJ4Ijo1NjMuNjA5NjQyMDI4ODA4NiwieSI6NzQuNX0seyJ4Ijo2NzMuODEzNzQzNTkxMzA4NiwieSI6NzQuNX0seyJ4Ijo3NjkuMDEyOTYyMzQxMzA4NiwieSI6NzQuNX0seyJ4Ijo4MjEuNjQxODY4NTkxMzA4NiwieSI6NzQuNX1d" data-look="classic" marker-end="url(#diagram-svg_flowchart-v2-pointEnd)"></path><path d="M513.765,177.687L563.61,158.5L673.814,158.5L769.013,158.5L822.079,158.5" id="diagram-svg-L_ig_direct_0" class="edge-thickness-normal edge-pattern-solid edge-thickness-normal edge-pattern-solid flowchart-link" style=";" data-edge="true" data-et="edge" data-id="L_ig_direct_0" data-points="W3sieCI6NTEzLjc2NDkxNTQ2NjMwODYsInkiOjE3Ny42ODY4MDAyMDQwNjUyfSx7IngiOjU2My42MDk2NDIwMjg4MDg2LCJ5IjoxNTguNX0seyJ4Ijo2NzMuODEzNzQzNTkxMzA4NiwieSI6MTU4LjV9LHsieCI6NzY5LjAxMjk2MjM0MTMwODYsInkiOjE1OC41fSx7IngiOjgyNi4wNzkzNjg1OTEzMDg2LCJ5IjoxNTguNX1d" data-look="classic" marker-end="url(#diagram-svg_flowchart-v2-pointEnd)"></path><path d="M513.765,223.313L563.61,242.5L609.454,242.5" id="diagram-svg-L_ig_id_0" class="edge-thickness-normal edge-pattern-solid edge-thickness-normal edge-pattern-solid flowchart-link" style=";" data-edge="true" data-et="edge" data-id="L_ig_id_0" data-points="W3sieCI6NTEzLjc2NDkxNTQ2NjMwODYsInkiOjIyMy4zMTMxOTk3OTU5MzQ4fSx7IngiOjU2My42MDk2NDIwMjg4MDg2LCJ5IjoyNDIuNX0seyJ4Ijo2MTMuNDU0MzY4NTkxMzA4NiwieSI6MjQyLjV9XQ==" data-look="classic" marker-end="url(#diagram-svg_flowchart-v2-pointEnd)"></path><path d="M734.173,242.5L769.013,242.5L799.853,242.5" id="diagram-svg-L_id_indirect_0" class="edge-thickness-normal edge-pattern-solid edge-thickness-normal edge-pattern-solid flowchart-link" style=";" data-edge="true" data-et="edge" data-id="L_id_indirect_0" data-points="W3sieCI6NzM0LjE3MzExODU5MTMwODYsInkiOjI0Mi41fSx7IngiOjc2OS4wMTI5NjIzNDEzMDg2LCJ5IjoyNDIuNX0seyJ4Ijo4MDMuODUyODA2MDkxMzA4NiwieSI6MjQyLjV9XQ==" data-look="classic" marker-end="url(#diagram-svg_flowchart-v2-pointEnd)"></path></g><g class="edgeLabels"><g class="edgeLabel"><g class="label" data-id="L_source_pg_0" transform="translate(0, 0)"><text y="-10.1" text-anchor="middle"><tspan class="text-outer-tspan row" x="0" y="-0.1em" dy="1.1em" text-anchor="middle"></tspan></text></g></g><g><rect class="background" style="stroke: none"></rect></g><g class="edgeLabel"><g class="label" data-id="L_source_rating_0" transform="translate(0, 0)"><text y="-10.1" text-anchor="middle"><tspan class="text-outer-tspan row" x="0" y="-0.1em" dy="1.1em" text-anchor="middle"></tspan></text></g></g><g><rect class="background" style="stroke: none"></rect></g><g class="edgeLabel" transform="translate(345.3889389038086, 200.5)"><g class="label" data-id="L_pg_ig_0" transform="translate(-0.2197265625, -13)"><g><rect class="background" style="" x="-33.125" y="0" width="66.689453125" height="26"></rect><text y="-10.1" text-anchor="middle" style=""><tspan class="text-outer-tspan row" x="0" y="-0.1em" dy="1.1em" text-anchor="middle"><tspan font-style="normal" class="text-inner-tspan" font-weight="normal">prompt</tspan></tspan></text></g></g></g><g class="edgeLabel" transform="translate(563.6096420288086, 74.5)"><g class="label" data-id="L_pg_prompttg_0" transform="translate(-0.2197265625, -13)"><g><rect class="background" style="" x="-33.125" y="0" width="66.689453125" height="26"></rect><text y="-10.1" text-anchor="middle" style=""><tspan class="text-outer-tspan row" x="0" y="-0.1em" dy="1.1em" text-anchor="middle"><tspan font-style="normal" class="text-inner-tspan" font-weight="normal">prompt</tspan></tspan></text></g></g></g><g class="edgeLabel" transform="translate(673.8137435913086, 158.5)"><g class="label" data-id="L_ig_direct_0" transform="translate(0, -13)"><g><rect class="background" style="" x="-29.2421875" y="0" width="58.484375" height="26"></rect><text y="-10.1" text-anchor="middle" style=""><tspan class="text-outer-tspan row" x="0" y="-0.1em" dy="1.1em" text-anchor="middle"><tspan font-style="normal" class="text-inner-tspan" font-weight="normal">image</tspan></tspan></text></g></g></g><g class="edgeLabel" transform="translate(563.6096420288086, 242.5)"><g class="label" data-id="L_ig_id_0" transform="translate(0, -13)"><g><rect class="background" style="" x="-29.2421875" y="0" width="58.484375" height="26"></rect><text y="-10.1" text-anchor="middle" style=""><tspan class="text-outer-tspan row" x="0" y="-0.1em" dy="1.1em" text-anchor="middle"><tspan font-style="normal" class="text-inner-tspan" font-weight="normal">image</tspan></tspan></text></g></g></g><g class="edgeLabel" transform="translate(769.0129623413086, 242.5)"><g class="label" data-id="L_id_indirect_0" transform="translate(-0.21484375, -13)"><g><rect class="background" style="" x="-18.125" y="0" width="36.6796875" height="26"></rect><text y="-10.1" text-anchor="middle" style=""><tspan class="text-outer-tspan row" x="0" y="-0.1em" dy="1.1em" text-anchor="middle"><tspan font-style="normal" class="text-inner-tspan" font-weight="normal">text</tspan></tspan></text></g></g></g></g><g class="nodes"><g class="node default context" id="diagram-svg-flowchart-source-0" data-look="classic" transform="translate(73.7174186706543, 208)"><g class="basic label-container outer-path"><path d="M-16.234375 -33 C-6.036776494115294 -33, 4.160822011769412 -33, 16.234375 -33 C16.234375 -33, 16.234374999999996 -33, 16.234374999999996 -33 C17.051517048602 -32.973795844971846, 17.86865909720401 -32.947591689943685, 18.348692259363524 -32.9321979607611 C19.163331831909776 -32.853610660944994, 19.97797140445603 -32.77502336112888, 20.454321335588695 -32.72907045616712 C21.233915826864962 -32.60303166466315, 22.01351031814123 -32.476992873159176, 22.54260974714528 -32.39145218070516 C23.077989948685055 -32.26925514338602, 23.613370150224824 -32.147058106066886, 24.604976269013736 -31.920730480287972 C25.378162100130744 -31.69125298414769, 26.151347931247752 -31.46177548800741, 26.632946194779482 -31.318839651352064 C27.115496246970892 -31.14125677150184, 27.5980462991623 -30.96367389165162, 28.618186161019345 -30.588252992418717 C29.05097343035452 -30.396670906462237, 29.4837606996897 -30.20508882050576, 30.552538390879416 -29.731972640779833 C30.984279279385337 -29.50673369578953, 31.41602016789126 -29.281494750799226, 32.42805421612994 -28.753517236071854 C32.82462109199529 -28.513116065436634, 33.221187967860644 -28.272714894801414, 34.23702673994811 -27.656907461430745 C34.840912164255826 -27.235663131212366, 35.44479758856354 -26.814418800993987, 35.97202250621012 -26.44664952164257 C36.59334165517245 -25.95116403434205, 37.21466080413478 -25.45567854704153, 37.62591204515701 -25.12771662618144 C38.22840808890626 -24.58054566042014, 38.83090413265551 -24.03337469465884, 39.19189916991505 -23.70552855322501 C39.49517739146614 -23.392368889868447, 39.79845561301724 -23.079209226511882, 40.663548903485406 -22.185929378623463 C41.0275861059382 -21.758310566318784, 41.39162330839099 -21.3306917540141, 42.03481392144498 -20.57516346133821 C42.308373723594 -20.208618248269183, 42.581933525743025 -19.842073035200155, 43.300059401699535 -18.879849784031606 C43.69978264596176 -18.26576754012462, 44.099505890223995 -17.651685296217636, 44.45408617917642 -17.10695475424733 C44.854535529641836 -16.39591638260217, 45.25498488010726 -15.68487801095701, 45.49215211030901 -15.263763577947564 C45.770670740540645 -14.685413682927546, 46.04918937077229 -14.107063787907526, 46.40999155952181 -13.357850323039004 C46.671452072517525 -12.712037800944465, 46.93291258551323 -12.066225278849926, 47.20383292764208 -11.397046795903167 C47.45958017283611 -10.626776841168617, 47.71532741803014 -9.856506886434067, 47.8704141502098 -9.38941035882408 C47.989523095840944 -8.935196326988944, 48.108632041472084 -8.480982295153808, 48.40699610200018 -7.3431908205583785 C48.51037062296612 -6.812384503610993, 48.61374514393207 -6.281578186663608, 48.81137385267685 -5.266796536101527 C48.89468899088846 -4.6206207765672005, 48.97800412910007 -3.9744450170328736, 49.08188572732354 -3.168759854953504 C49.11578481339679 -2.6407542265128114, 49.14968389947005 -2.1127485980721183, 49.2174201346227 -1.0577020598646205 C49.2174201346227 -0.4334360000820161, 49.2174201346227 0.1908300597005883, 49.2174201346227 1.0577020598646125 C49.18133424956175 1.6197688476910783, 49.145248364500794 2.181835635517544, 49.08188572732354 3.1687598549534814 C48.97893250886353 3.967244686916845, 48.875979290403514 4.765729518880209, 48.81137385267686 5.266796536101504 C48.66066759214824 6.04064133213649, 48.50996133161963 6.814486128171477, 48.40699610200018 7.343190820558371 C48.21482171222638 8.07603505767325, 48.022647322452585 8.808879294788131, 47.870414150209804 9.389410358824058 C47.67932523820911 9.964939715886652, 47.488236326208416 10.540469072949245, 47.2038329276421 11.397046795903146 C46.89582498573026 12.15783236735383, 46.587817043818426 12.918617938804514, 46.40999155952181 13.357850323038996 C46.19453860153365 13.805243000256219, 45.97908564354548 14.252635677473442, 45.49215211030901 15.263763577947556 C45.24567626582621 15.701406398212406, 44.99920042134342 16.139049218477254, 44.45408617917643 17.106954754247322 C44.01268208630102 17.78506997449915, 43.57127799342561 18.46318519475098, 43.30005940169955 18.879849784031588 C42.849176136041315 19.4839922837031, 42.39829287038309 20.088134783374606, 42.034813921444986 20.5751634613382 C41.696954494702304 20.97203236873615, 41.359095067959615 21.368901276134107, 40.66354890348542 22.18592937862344 C40.24075275696635 22.62250111211357, 39.81795661044728 23.0590728456037, 39.19189916991506 23.705528553225005 C38.7293386349472 24.12561379240172, 38.266778099979334 24.545699031578437, 37.62591204515704 25.127716626181417 C37.124545250751325 25.52754330278925, 36.62317845634561 25.927369979397085, 35.97202250621014 26.446649521642566 C35.3201418369375 26.9013732570678, 34.66826116766487 27.356096992493033, 34.23702673994812 27.656907461430734 C33.72183001316732 27.969222744837285, 33.20663328638652 28.281538028243837, 32.42805421612995 28.75351723607185 C31.931008635407476 29.012825597161875, 31.433963054685 29.272133958251903, 30.552538390879423 29.73197264077983 C29.782580035592083 30.07281036466243, 29.012621680304743 30.41364808854503, 28.61818616101936 30.588252992418713 C28.00332390454666 30.81452798652506, 27.388461648073964 31.040802980631405, 26.632946194779503 31.318839651352057 C25.999933024734894 31.506714637467365, 25.366919854690284 31.694589623582672, 24.604976269013775 31.920730480287965 C23.967543539901662 32.06622034107051, 23.330110810789545 32.21171020185305, 22.542609747145296 32.39145218070516 C22.122492382756878 32.459373498120655, 21.702375018368457 32.52729481553616, 20.454321335588716 32.72907045616712 C19.88580282366885 32.78391475326848, 19.317284311748985 32.83875905036985, 18.348692259363524 32.9321979607611 C17.680744301459402 32.95361775168926, 17.01279634355528 32.975037542617414, 16.234375000000007 33 C16.234375000000004 33, 16.234375000000004 33, 16.234375 33 C9.286741638837814 33, 2.3391082776756296 33, -16.234374999999993 33 C-17.001546029280863 32.97539831829879, -17.76871705856173 32.950796636597566, -18.34869225936351 32.9321979607611 C-18.844926619849296 32.884326828814174, -19.341160980335083 32.83645569686724, -20.454321335588705 32.72907045616712 C-20.90179976441544 32.65672561404146, -21.34927819324217 32.5843807719158, -22.542609747145285 32.39145218070516 C-23.227595063285204 32.23510875224315, -23.912580379425123 32.078765323781134, -24.604976269013733 31.920730480287972 C-25.117990145976897 31.768470654470097, -25.63100402294006 31.61621082865222, -26.632946194779464 31.31883965135207 C-27.164158214223228 31.12334871772669, -27.695370233666992 30.927857784101306, -28.61818616101935 30.588252992418717 C-29.212561305111876 30.325140747641157, -29.806936449204404 30.062028502863598, -30.552538390879413 29.731972640779837 C-31.159236410732206 29.415458672431264, -31.765934430585 29.09894470408269, -32.42805421612994 28.753517236071858 C-33.07349910639661 28.362244750537002, -33.71894399666329 27.970972265002143, -34.237026739948085 27.656907461430755 C-34.875521711008155 27.211521009621073, -35.51401668206822 26.76613455781139, -35.97202250621012 26.446649521642573 C-36.47104036459872 26.048696059000576, -36.970058222987326 25.65074259635858, -37.62591204515701 25.127716626181442 C-38.024143659945295 24.76605321026186, -38.42237527473358 24.404389794342276, -39.19189916991503 23.705528553225026 C-39.59310012836301 23.291255624416213, -39.994301086811 22.8769826956074, -40.66354890348542 22.185929378623452 C-41.21129340852816 21.542517515454982, -41.759037913570886 20.899105652286508, -42.03481392144498 20.575163461338214 C-42.35878737029816 20.141068554463313, -42.68276081915134 19.706973647588413, -43.300059401699535 18.87984978403161 C-43.663989370665995 18.320755622819135, -44.02791933963245 17.761661461606657, -44.454086179176414 17.106954754247344 C-44.82644620429727 16.44579182410407, -45.198806229418125 15.784628893960797, -45.492152110309 15.263763577947568 C-45.80301291306741 14.61825446966407, -46.11387371582583 13.972745361380573, -46.40999155952181 13.357850323039008 C-46.638300829415286 12.793922012342673, -46.86661009930876 12.229993701646338, -47.20383292764208 11.39704679590317 C-47.36913373779953 10.899187092816392, -47.53443454795698 10.401327389729616, -47.8704141502098 9.38941035882407 C-48.06952138174497 8.630128191360456, -48.26862861328014 7.870846023896841, -48.40699610200018 7.343190820558383 C-48.52356013126238 6.7446591661132755, -48.640124160524586 6.146127511668169, -48.81137385267685 5.2667965361015305 C-48.87392332700605 4.7816751649950735, -48.93647280133524 4.2965537938886165, -49.08188572732354 3.1687598549535227 C-49.11093384697512 2.7163119441599397, -49.139981966626706 2.2638640333663567, -49.2174201346227 1.0577020598646245 C-49.2174201346227 0.634439816908443, -49.2174201346227 0.21117757395226144, -49.2174201346227 -1.0577020598646085 C-49.168784629896685 -1.8152393038451318, -49.12014912517066 -2.572776547825655, -49.08188572732354 -3.1687598549534775 C-49.009698027182715 -3.7286334021719774, -48.93751032704189 -4.288506949390477, -48.81137385267686 -5.2667965361015145 C-48.66222591375975 -6.032639680012802, -48.513077974842645 -6.79848282392409, -48.40699610200018 -7.343190820558368 C-48.254938427140516 -7.923052637011431, -48.10288075228085 -8.502914453464495, -47.87041415020981 -9.389410358824055 C-47.625390109067204 -10.127383731466265, -47.38036606792459 -10.865357104108476, -47.2038329276421 -11.39704679590313 C-46.89731125072056 -12.154161264092794, -46.59078957379903 -12.911275732282459, -46.40999155952181 -13.35785032303899 C-46.142633575304025 -13.91302489781168, -45.875275591086236 -14.468199472584368, -45.49215211030901 -15.263763577947552 C-45.224245276447164 -15.739459289977896, -44.95633844258533 -16.21515500200824, -44.45408617917642 -17.106954754247333 C-44.007251632152936 -17.793412610351726, -43.56041708512945 -18.479870466456116, -43.30005940169954 -18.8798497840316 C-42.92042934682507 -19.388519472553917, -42.54079929195059 -19.897189161076238, -42.03481392144499 -20.5751634613382 C-41.71785141005197 -20.94748566289827, -41.40088889865895 -21.31980786445834, -40.66354890348543 -22.18592937862344 C-40.20794212721762 -22.65638078113194, -39.752335350949814 -23.126832183640442, -39.19189916991507 -23.705528553224994 C-38.75323582717182 -24.10391099470837, -38.31457248442858 -24.50229343619175, -37.625912045157044 -25.127716626181414 C-37.02681798110167 -25.605478199702983, -36.4277239170463 -26.083239773224555, -35.97202250621014 -26.446649521642563 C-35.46505898784667 -26.80028532595592, -34.9580954694832 -27.153921130269275, -34.23702673994812 -27.65690746143073 C-33.67327259465225 -27.99865853729618, -33.10951844935638 -28.340409613161633, -32.42805421612995 -28.753517236071847 C-31.78236128480265 -29.09037482475924, -31.136668353475347 -29.427232413446635, -30.552538390879427 -29.73197264077983 C-29.98889248807986 -29.98148196198755, -29.425246585280288 -30.230991283195273, -28.618186161019363 -30.58825299241871 C-28.136965375980832 -30.765346689669062, -27.6557445909423 -30.942440386919415, -26.632946194779507 -31.318839651352057 C-26.104090980665514 -31.475801102883423, -25.575235766551522 -31.63276255441479, -24.604976269013775 -31.92073048028796 C-24.18921029179395 -32.01562635146183, -23.773444314574128 -32.1105222226357, -22.5426097471453 -32.39145218070515 C-22.07234037840164 -32.467481685250206, -21.60207100965798 -32.54351118979526, -20.45432133558872 -32.72907045616712 C-19.679228788198174 -32.80384270202872, -18.904136240807627 -32.87861494789031, -18.348692259363528 -32.9321979607611 C-17.79359259518237 -32.94999892655544, -17.23849293100121 -32.96779989234978, -16.23437500000001 -33 C-16.234375000000007 -33, -16.234375000000004 -33, -16.234375 -33" stroke="none" stroke-width="0" fill="#ffffff" style="fill:#ffffff !important;stroke:#526b80 !important"></path><path d="M-16.234375 -33 C-3.7579326984863695 -33, 8.718509603027261 -33, 16.234375 -33 M-16.234375 -33 C-3.425872567997823 -33, 9.382629864004354 -33, 16.234375 -33 M16.234375 -33 C16.234375 -33, 16.234374999999996 -33, 16.234374999999996 -33 M16.234375 -33 C16.234375 -33, 16.234375 -33, 16.234374999999996 -33 M16.234374999999996 -33 C16.88407201329241 -32.979165481342235, 17.53376902658482 -32.958330962684464, 18.348692259363524 -32.9321979607611 M16.234374999999996 -33 C17.035526309512143 -32.974308636850374, 17.83667761902429 -32.94861727370074, 18.348692259363524 -32.9321979607611 M18.348692259363524 -32.9321979607611 C18.84232934769436 -32.884577384535284, 19.335966436025195 -32.836956808309466, 20.454321335588695 -32.72907045616712 M18.348692259363524 -32.9321979607611 C18.816606203778626 -32.887058865292225, 19.284520148193728 -32.841919769823356, 20.454321335588695 -32.72907045616712 M20.454321335588695 -32.72907045616712 C21.0739846610001 -32.628888095275464, 21.693647986411502 -32.52870573438381, 22.54260974714528 -32.39145218070516 M20.454321335588695 -32.72907045616712 C21.204385265932995 -32.60780593674171, 21.954449196277295 -32.486541417316296, 22.54260974714528 -32.39145218070516 M22.54260974714528 -32.39145218070516 C23.29746862134117 -32.21916056858445, 24.052327495537064 -32.04686895646374, 24.604976269013736 -31.920730480287972 M22.54260974714528 -32.39145218070516 C22.959604160159767 -32.29627592707745, 23.376598573174252 -32.20109967344974, 24.604976269013736 -31.920730480287972 M24.604976269013736 -31.920730480287972 C25.345740456806066 -31.700875557701778, 26.0865046445984 -31.48102063511558, 26.632946194779482 -31.318839651352064 M24.604976269013736 -31.920730480287972 C25.314694351158597 -31.710089878893612, 26.024412433303457 -31.499449277499252, 26.632946194779482 -31.318839651352064 M26.632946194779482 -31.318839651352064 C27.3087381175784 -31.070141976810007, 27.984530040377315 -30.821444302267953, 28.618186161019345 -30.588252992418717 M26.632946194779482 -31.318839651352064 C27.39519553659459 -31.03832484740843, 28.157444878409695 -30.757810043464797, 28.618186161019345 -30.588252992418717 M28.618186161019345 -30.588252992418717 C29.379800628671223 -30.251108860079704, 30.141415096323104 -29.913964727740687, 30.552538390879416 -29.731972640779833 M28.618186161019345 -30.588252992418717 C29.264224842359233 -30.30227083224613, 29.910263523699122 -30.016288672073546, 30.552538390879416 -29.731972640779833 M30.552538390879416 -29.731972640779833 C31.259257256294514 -29.363277861367813, 31.965976121709613 -28.994583081955792, 32.42805421612994 -28.753517236071854 M30.552538390879416 -29.731972640779833 C31.008538508395535 -29.494077671553686, 31.464538625911658 -29.256182702327543, 32.42805421612994 -28.753517236071854 M32.42805421612994 -28.753517236071854 C32.83921849939145 -28.504267031289196, 33.25038278265296 -28.255016826506537, 34.23702673994811 -27.656907461430745 M32.42805421612994 -28.753517236071854 C32.8766129759451 -28.481598279848036, 33.32517173576026 -28.209679323624222, 34.23702673994811 -27.656907461430745 M34.23702673994811 -27.656907461430745 C34.875651772514274 -27.211430284344672, 35.51427680508045 -26.7659531072586, 35.97202250621012 -26.44664952164257 M34.23702673994811 -27.656907461430745 C34.63205922515546 -27.381349900430763, 35.02709171036282 -27.10579233943078, 35.97202250621012 -26.44664952164257 M35.97202250621012 -26.44664952164257 C36.46314518863384 -26.054992251733115, 36.95426787105755 -25.66333498182366, 37.62591204515701 -25.12771662618144 M35.97202250621012 -26.44664952164257 C36.35182789630146 -26.14376483009063, 36.7316332863928 -25.840880138538683, 37.62591204515701 -25.12771662618144 M37.62591204515701 -25.12771662618144 C37.95269188083549 -24.830943825538903, 38.279471716513974 -24.534171024896363, 39.19189916991505 -23.70552855322501 M37.62591204515701 -25.12771662618144 C37.94431531999125 -24.83855119646599, 38.262718594825486 -24.54938576675054, 39.19189916991505 -23.70552855322501 M39.19189916991505 -23.70552855322501 C39.60770950354169 -23.27617024509222, 40.02351983716833 -22.846811936959433, 40.663548903485406 -22.185929378623463 M39.19189916991505 -23.70552855322501 C39.72613843932873 -23.153882645695646, 40.26037770874242 -22.602236738166283, 40.663548903485406 -22.185929378623463 M40.663548903485406 -22.185929378623463 C40.984350753581175 -21.809097271358585, 41.30515260367694 -21.43226516409371, 42.03481392144498 -20.57516346133821 M40.663548903485406 -22.185929378623463 C41.169314739910966 -21.59182804826663, 41.67508057633653 -20.997726717909803, 42.03481392144498 -20.57516346133821 M42.03481392144498 -20.57516346133821 C42.41148040187714 -20.070464692581403, 42.788146882309306 -19.565765923824596, 43.300059401699535 -18.879849784031606 M42.03481392144498 -20.57516346133821 C42.5089708181914 -19.939836416279938, 42.98312771493782 -19.304509371221663, 43.300059401699535 -18.879849784031606 M43.300059401699535 -18.879849784031606 C43.61908160120939 -18.38974601612905, 43.93810380071924 -17.899642248226495, 44.45408617917642 -17.10695475424733 M43.300059401699535 -18.879849784031606 C43.73815640727309 -18.20681513795271, 44.17625341284664 -17.533780491873816, 44.45408617917642 -17.10695475424733 M44.45408617917642 -17.10695475424733 C44.817702658943546 -16.461316874259587, 45.18131913871067 -15.815678994271847, 45.49215211030901 -15.263763577947564 M44.45408617917642 -17.10695475424733 C44.7996119285894 -16.493438797888466, 45.14513767800238 -15.879922841529599, 45.49215211030901 -15.263763577947564 M45.49215211030901 -15.263763577947564 C45.79703923539997 -14.63065893915675, 46.101926360490936 -13.997554300365934, 46.40999155952181 -13.357850323039004 M45.49215211030901 -15.263763577947564 C45.80621019205267 -14.61161525144039, 46.12026827379633 -13.959466924933217, 46.40999155952181 -13.357850323039004 M46.40999155952181 -13.357850323039004 C46.64961713459545 -12.76597051976178, 46.8892427096691 -12.174090716484553, 47.20383292764208 -11.397046795903167 M46.40999155952181 -13.357850323039004 C46.70391314248731 -12.631858330527004, 46.9978347254528 -11.905866338015002, 47.20383292764208 -11.397046795903167 M47.20383292764208 -11.397046795903167 C47.35062134320192 -10.954943475794861, 47.49740975876176 -10.512840155686554, 47.8704141502098 -9.38941035882408 M47.20383292764208 -11.397046795903167 C47.44697844741439 -10.664731230326565, 47.6901239671867 -9.93241566474996, 47.8704141502098 -9.38941035882408 M47.8704141502098 -9.38941035882408 C47.989135253562786 -8.936675337687468, 48.10785635691577 -8.483940316550855, 48.40699610200018 -7.3431908205583785 M47.8704141502098 -9.38941035882408 C48.057715017998 -8.675150973238065, 48.2450158857862 -7.960891587652052, 48.40699610200018 -7.3431908205583785 M48.40699610200018 -7.3431908205583785 C48.560342672430885 -6.555788591205823, 48.7136892428616 -5.768386361853267, 48.81137385267685 -5.266796536101527 M48.40699610200018 -7.3431908205583785 C48.53733926770014 -6.673906212726905, 48.6676824334001 -6.004621604895431, 48.81137385267685 -5.266796536101527 M48.81137385267685 -5.266796536101527 C48.86599346151723 -4.843177635797309, 48.9206130703576 -4.419558735493092, 49.08188572732354 -3.168759854953504 M48.81137385267685 -5.266796536101527 C48.88540296595299 -4.6926413522336565, 48.95943207922914 -4.118486168365786, 49.08188572732354 -3.168759854953504 M49.08188572732354 -3.168759854953504 C49.119947439136894 -2.575917970599674, 49.15800915095025 -1.9830760862458439, 49.2174201346227 -1.0577020598646205 M49.08188572732354 -3.168759854953504 C49.131573750287615 -2.394828789837756, 49.18126177325169 -1.6208977247220078, 49.2174201346227 -1.0577020598646205 M49.2174201346227 -1.0577020598646205 C49.2174201346227 -0.360077969966935, 49.2174201346227 0.33754611993075057, 49.2174201346227 1.0577020598646125 M49.2174201346227 -1.0577020598646205 C49.2174201346227 -0.4835710669765756, 49.2174201346227 0.09055992591146933, 49.2174201346227 1.0577020598646125 M49.2174201346227 1.0577020598646125 C49.170154955861356 1.7938953708381442, 49.12288977710001 2.530088681811676, 49.08188572732354 3.1687598549534814 M49.2174201346227 1.0577020598646125 C49.167972895011395 1.827882729904047, 49.1185256554001 2.5980633999434817, 49.08188572732354 3.1687598549534814 M49.08188572732354 3.1687598549534814 C48.98521578363023 3.9185128485992298, 48.888545839936924 4.668265842244978, 48.81137385267686 5.266796536101504 M49.08188572732354 3.1687598549534814 C48.985022955707564 3.920008383889287, 48.88816018409158 4.671256912825093, 48.81137385267686 5.266796536101504 M48.81137385267686 5.266796536101504 C48.70512680597584 5.8123526655899616, 48.59887975927482 6.357908795078419, 48.40699610200018 7.343190820558371 M48.81137385267686 5.266796536101504 C48.65537553435649 6.067814930420347, 48.499377216036116 6.868833324739191, 48.40699610200018 7.343190820558371 M48.40699610200018 7.343190820558371 C48.230942388209364 8.014559933404964, 48.05488867441855 8.685929046251557, 47.870414150209804 9.389410358824058 M48.40699610200018 7.343190820558371 C48.2413068949351 7.975035577254104, 48.07561768787002 8.606880333949839, 47.870414150209804 9.389410358824058 M47.870414150209804 9.389410358824058 C47.73120945465169 9.808672722588863, 47.59200475909358 10.227935086353668, 47.2038329276421 11.397046795903146 M47.870414150209804 9.389410358824058 C47.728061796899304 9.818152966227895, 47.585709443588804 10.246895573631734, 47.2038329276421 11.397046795903146 M47.2038329276421 11.397046795903146 C47.02538992362309 11.837804465790882, 46.84694691960408 12.278562135678616, 46.40999155952181 13.357850323038996 M47.2038329276421 11.397046795903146 C47.043827887902836 11.79226233754611, 46.88382284816358 12.187477879189073, 46.40999155952181 13.357850323038996 M46.40999155952181 13.357850323038996 C46.10656943938146 13.987912847703782, 45.803147319241106 14.61797537236857, 45.49215211030901 15.263763577947556 M46.40999155952181 13.357850323038996 C46.14350263560966 13.911220275492125, 45.8770137116975 14.464590227945255, 45.49215211030901 15.263763577947556 M45.49215211030901 15.263763577947556 C45.116558055502345 15.93066885527899, 44.74096400069569 16.597574132610422, 44.45408617917643 17.106954754247322 M45.49215211030901 15.263763577947556 C45.13021028206646 15.906427944576565, 44.76826845382391 16.549092311205577, 44.45408617917643 17.106954754247322 M44.45408617917643 17.106954754247322 C44.05732810759997 17.716481696648607, 43.660570036023515 18.326008639049896, 43.30005940169955 18.879849784031588 M44.45408617917643 17.106954754247322 C44.10985604245718 17.63578468298244, 43.76562590573793 18.164614611717557, 43.30005940169955 18.879849784031588 M43.30005940169955 18.879849784031588 C43.03954837457879 19.228910827330594, 42.779037347458036 19.577971870629604, 42.034813921444986 20.5751634613382 M43.30005940169955 18.879849784031588 C42.86335634676424 19.464992093178157, 42.42665329182893 20.050134402324723, 42.034813921444986 20.5751634613382 M42.034813921444986 20.5751634613382 C41.681104819317824 20.990650299314833, 41.32739571719067 21.40613713729147, 40.66354890348542 22.18592937862344 M42.034813921444986 20.5751634613382 C41.75110672638744 20.908422076049515, 41.467399531329896 21.24168069076083, 40.66354890348542 22.18592937862344 M40.66354890348542 22.18592937862344 C40.22354163747253 22.640273006050133, 39.78353437145964 23.094616633476825, 39.19189916991506 23.705528553225005 M40.66354890348542 22.18592937862344 C40.12770397845536 22.7392332574035, 39.591859053425296 23.29253713618356, 39.19189916991506 23.705528553225005 M39.19189916991506 23.705528553225005 C38.83637434356888 24.02840679384117, 38.480849517222694 24.35128503445734, 37.62591204515704 25.127716626181417 M39.19189916991506 23.705528553225005 C38.56553987766546 24.27437148988737, 37.939180585415855 24.843214426549732, 37.62591204515704 25.127716626181417 M37.62591204515704 25.127716626181417 C37.12984539688532 25.5233165772902, 36.63377874861361 25.918916528398984, 35.97202250621014 26.446649521642566 M37.62591204515704 25.127716626181417 C37.06898728072529 25.571849305425342, 36.51206251629354 26.015981984669267, 35.97202250621014 26.446649521642566 M35.97202250621014 26.446649521642566 C35.53668046007863 26.750325287370472, 35.10133841394711 27.054001053098375, 34.23702673994812 27.656907461430734 M35.97202250621014 26.446649521642566 C35.47993853396473 26.789905998709134, 34.98785456171932 27.1331624757757, 34.23702673994812 27.656907461430734 M34.23702673994812 27.656907461430734 C33.622232280295826 28.02959947580523, 33.007437820643524 28.40229149017973, 32.42805421612995 28.75351723607185 M34.23702673994812 27.656907461430734 C33.83743549662982 27.899142021389085, 33.43784425331152 28.141376581347437, 32.42805421612995 28.75351723607185 M32.42805421612995 28.75351723607185 C31.934382845495147 29.011065273920423, 31.440711474860343 29.268613311768995, 30.552538390879423 29.73197264077983 M32.42805421612995 28.75351723607185 C31.82022996006403 29.070618761131424, 31.212405703998108 29.387720286190998, 30.552538390879423 29.73197264077983 M30.552538390879423 29.73197264077983 C29.882531515857412 30.02856480930429, 29.2125246408354 30.325156977828744, 28.61818616101936 30.588252992418713 M30.552538390879423 29.73197264077983 C30.146098217417347 29.911891648952118, 29.73965804395527 30.091810657124405, 28.61818616101936 30.588252992418713 M28.61818616101936 30.588252992418713 C28.189271665085563 30.746097491764488, 27.760357169151767 30.903941991110262, 26.632946194779503 31.318839651352057 M28.61818616101936 30.588252992418713 C27.918367453861414 30.845792745706053, 27.218548746703465 31.10333249899339, 26.632946194779503 31.318839651352057 M26.632946194779503 31.318839651352057 C25.880380218449943 31.542197282827253, 25.127814242120383 31.76555491430245, 24.604976269013775 31.920730480287965 M26.632946194779503 31.318839651352057 C25.916578697526422 31.531453764247047, 25.200211200273337 31.744067877142037, 24.604976269013775 31.920730480287965 M24.604976269013775 31.920730480287965 C24.187706468971992 32.015969589207586, 23.77043666893021 32.11120869812721, 22.542609747145296 32.39145218070516 M24.604976269013775 31.920730480287965 C24.140026269949697 32.02685228349205, 23.675076270885622 32.13297408669613, 22.542609747145296 32.39145218070516 M22.542609747145296 32.39145218070516 C22.029036693876414 32.47448268913916, 21.515463640607532 32.55751319757316, 20.454321335588716 32.72907045616712 M22.542609747145296 32.39145218070516 C21.869909092338474 32.50020920570283, 21.19720843753165 32.60896623070051, 20.454321335588716 32.72907045616712 M20.454321335588716 32.72907045616712 C19.672948989241505 32.8044485066815, 18.891576642894293 32.879826557195884, 18.348692259363524 32.9321979607611 M20.454321335588716 32.72907045616712 C19.841591920555786 32.788179725920415, 19.22886250552286 32.8472889956737, 18.348692259363524 32.9321979607611 M18.348692259363524 32.9321979607611 C17.59809608421542 32.956268119151275, 16.847499909067313 32.98033827754145, 16.234375000000007 33 M18.348692259363524 32.9321979607611 C17.537759308087725 32.958203002123284, 16.72682635681193 32.98420804348546, 16.234375000000007 33 M16.234375000000007 33 C16.234375000000004 33, 16.234375000000004 33, 16.234375 33 M16.234375000000007 33 C16.234375000000004 33, 16.234375000000004 33, 16.234375 33 M16.234375 33 C6.8708956802410714 33, -2.492583639517857 33, -16.234374999999993 33 M16.234375 33 C8.957574147994404 33, 1.680773295988807 33, -16.234374999999993 33 M-16.234374999999993 33 C-16.661980119518415 32.986287536099915, -17.089585239036836 32.97257507219984, -18.34869225936351 32.9321979607611 M-16.234374999999993 33 C-17.031515276030927 32.97443726288711, -17.82865555206186 32.94887452577422, -18.34869225936351 32.9321979607611 M-18.34869225936351 32.9321979607611 C-19.06775475652617 32.862830866459, -19.786817253688827 32.79346377215689, -20.454321335588705 32.72907045616712 M-18.34869225936351 32.9321979607611 C-18.95963095076481 32.873261439962896, -19.570569642166113 32.81432491916468, -20.454321335588705 32.72907045616712 M-20.454321335588705 32.72907045616712 C-20.882169927053315 32.65989921391451, -21.310018518517925 32.59072797166189, -22.542609747145285 32.39145218070516 M-20.454321335588705 32.72907045616712 C-21.11932275527828 32.62155818379475, -21.784324174967853 32.514045911422365, -22.542609747145285 32.39145218070516 M-22.542609747145285 32.39145218070516 C-23.021067031097086 32.282247427868725, -23.499524315048888 32.17304267503229, -24.604976269013733 31.920730480287972 M-22.542609747145285 32.39145218070516 C-23.18410483795247 32.2450351123751, -23.825599928759658 32.09861804404504, -24.604976269013733 31.920730480287972 M-24.604976269013733 31.920730480287972 C-25.10619685831355 31.77197084034435, -25.607417447613365 31.623211200400725, -26.632946194779464 31.31883965135207 M-24.604976269013733 31.920730480287972 C-25.352338063067005 31.698917422795073, -26.099699857120278 31.47710436530217, -26.632946194779464 31.31883965135207 M-26.632946194779464 31.31883965135207 C-27.04021035838741 31.16896267443569, -27.447474521995357 31.019085697519305, -28.61818616101935 30.588252992418717 M-26.632946194779464 31.31883965135207 C-27.424456375481043 31.027556588213987, -28.21596655618262 30.7362735250759, -28.61818616101935 30.588252992418717 M-28.61818616101935 30.588252992418717 C-29.30842312708275 30.282705562694566, -29.998660093146153 29.977158132970413, -30.552538390879413 29.731972640779837 M-28.61818616101935 30.588252992418717 C-29.30843312105864 30.2827011386579, -29.998680081097934 29.97714928489708, -30.552538390879413 29.731972640779837 M-30.552538390879413 29.731972640779837 C-31.233698308910892 29.376611947846563, -31.914858226942375 29.02125125491329, -32.42805421612994 28.753517236071858 M-30.552538390879413 29.731972640779837 C-31.135227201783568 29.427984261361136, -31.717916012687724 29.12399588194243, -32.42805421612994 28.753517236071858 M-32.42805421612994 28.753517236071858 C-32.96981022017639 28.42510156270723, -33.51156622422285 28.096685889342602, -34.237026739948085 27.656907461430755 M-32.42805421612994 28.753517236071858 C-33.07417450255785 28.36183532141499, -33.72029478898576 27.970153406758122, -34.237026739948085 27.656907461430755 M-34.237026739948085 27.656907461430755 C-34.92169092555493 27.179315364186326, -35.60635511116177 26.7017232669419, -35.97202250621012 26.446649521642573 M-34.237026739948085 27.656907461430755 C-34.8242960321181 27.247253825690873, -35.41156532428812 26.83760018995099, -35.97202250621012 26.446649521642573 M-35.97202250621012 26.446649521642573 C-36.3072558494064 26.17930985137746, -36.642489192602675 25.91197018111235, -37.62591204515701 25.127716626181442 M-35.97202250621012 26.446649521642573 C-36.49782645210942 26.027334867018517, -37.02363039800873 25.60802021239446, -37.62591204515701 25.127716626181442 M-37.62591204515701 25.127716626181442 C-38.18072183455015 24.62385305491721, -38.73553162394329 24.119989483652976, -39.19189916991503 23.705528553225026 M-37.62591204515701 25.127716626181442 C-37.96005523124323 24.824256625522167, -38.29419841732946 24.520796624862893, -39.19189916991503 23.705528553225026 M-39.19189916991503 23.705528553225026 C-39.70903242075604 23.171546014302194, -40.22616567159705 22.63756347537936, -40.66354890348542 22.185929378623452 M-39.19189916991503 23.705528553225026 C-39.52585788556827 23.36068876079259, -39.8598166012215 23.01584896836016, -40.66354890348542 22.185929378623452 M-40.66354890348542 22.185929378623452 C-41.04672078230857 21.735833886660224, -41.42989266113172 21.285738394696992, -42.03481392144498 20.575163461338214 M-40.66354890348542 22.185929378623452 C-41.05161976131631 21.730079267157922, -41.43969061914721 21.274229155692392, -42.03481392144498 20.575163461338214 M-42.03481392144498 20.575163461338214 C-42.53692144059276 19.90238512861621, -43.039028959740534 19.229606795894203, -43.300059401699535 18.87984978403161 M-42.03481392144498 20.575163461338214 C-42.33062074706476 20.1788092635639, -42.62642757268455 19.782455065789588, -43.300059401699535 18.87984978403161 M-43.300059401699535 18.87984978403161 C-43.75188801326997 18.185719703688996, -44.20371662484041 17.491589623346382, -44.454086179176414 17.106954754247344 M-43.300059401699535 18.87984978403161 C-43.561522435497324 18.478172351462934, -43.82298546929511 18.076494918894262, -44.454086179176414 17.106954754247344 M-44.454086179176414 17.106954754247344 C-44.832112850627716 16.43573011973421, -45.21013952207901 15.764505485221072, -45.492152110309 15.263763577947568 M-44.454086179176414 17.106954754247344 C-44.76390588278903 16.556838497836214, -45.07372558640165 16.006722241425084, -45.492152110309 15.263763577947568 M-45.492152110309 15.263763577947568 C-45.84784053019036 14.525168963550927, -46.203528950071714 13.786574349154288, -46.40999155952181 13.357850323039008 M-45.492152110309 15.263763577947568 C-45.801107459324584 14.622211185131235, -46.110062808340174 13.980658792314903, -46.40999155952181 13.357850323039008 M-46.40999155952181 13.357850323039008 C-46.60968669763904 12.864599471046601, -46.80938183575627 12.371348619054194, -47.20383292764208 11.39704679590317 M-46.40999155952181 13.357850323039008 C-46.638734641026126 12.792850489276724, -46.86747772253044 12.227850655514441, -47.20383292764208 11.39704679590317 M-47.20383292764208 11.39704679590317 C-47.3779037761244 10.872773134697724, -47.55197462460672 10.348499473492279, -47.8704141502098 9.38941035882407 M-47.20383292764208 11.39704679590317 C-47.461998407966924 10.619493502248057, -47.720163888291765 9.841940208592941, -47.8704141502098 9.38941035882407 M-47.8704141502098 9.38941035882407 C-48.08383266407666 8.575553069280712, -48.29725117794353 7.761695779737353, -48.40699610200018 7.343190820558383 M-47.8704141502098 9.38941035882407 C-48.052864300332445 8.693648862011166, -48.235314450455085 7.997887365198261, -48.40699610200018 7.343190820558383 M-48.40699610200018 7.343190820558383 C-48.56629137726944 6.525243249119097, -48.725586652538695 5.70729567767981, -48.81137385267685 5.2667965361015305 M-48.40699610200018 7.343190820558383 C-48.552200468349355 6.597597088309067, -48.697404834698524 5.852003356059751, -48.81137385267685 5.2667965361015305 M-48.81137385267685 5.2667965361015305 C-48.91215482821179 4.485159191307171, -49.01293580374673 3.703521846512812, -49.08188572732354 3.1687598549535227 M-48.81137385267685 5.2667965361015305 C-48.914645257647514 4.4658439123945985, -49.01791666261818 3.6648912886876666, -49.08188572732354 3.1687598549535227 M-49.08188572732354 3.1687598549535227 C-49.120087574611446 2.5737352474682065, -49.15828942189936 1.9787106399828902, -49.2174201346227 1.0577020598646245 M-49.08188572732354 3.1687598549535227 C-49.122561156431495 2.5352072139816553, -49.16323658553945 1.901654573009788, -49.2174201346227 1.0577020598646245 M-49.2174201346227 1.0577020598646245 C-49.2174201346227 0.496429977800266, -49.2174201346227 -0.06484210426409254, -49.2174201346227 -1.0577020598646085 M-49.2174201346227 1.0577020598646245 C-49.2174201346227 0.5820647725237118, -49.2174201346227 0.10642748518279921, -49.2174201346227 -1.0577020598646085 M-49.2174201346227 -1.0577020598646085 C-49.18258508125537 -1.6002861344098027, -49.14775002788803 -2.1428702089549967, -49.08188572732354 -3.1687598549534775 M-49.2174201346227 -1.0577020598646085 C-49.17266340049593 -1.7548243208746204, -49.12790666636916 -2.4519465818846324, -49.08188572732354 -3.1687598549534775 M-49.08188572732354 -3.1687598549534775 C-49.02144991739191 -3.637488062382672, -48.96101410746028 -4.106216269811867, -48.81137385267686 -5.2667965361015145 M-49.08188572732354 -3.1687598549534775 C-49.02305109995812 -3.62506960658842, -48.964216472592696 -4.081379358223362, -48.81137385267686 -5.2667965361015145 M-48.81137385267686 -5.2667965361015145 C-48.70069028249964 -5.835133275980673, -48.59000671232243 -6.403470015859831, -48.40699610200018 -7.343190820558368 M-48.81137385267686 -5.2667965361015145 C-48.69982599617709 -5.839571203580014, -48.588278139677314 -6.412345871058513, -48.40699610200018 -7.343190820558368 M-48.40699610200018 -7.343190820558368 C-48.23456024288769 -8.000763485528385, -48.0621243837752 -8.658336150498402, -47.87041415020981 -9.389410358824055 M-48.40699610200018 -7.343190820558368 C-48.22470764194574 -8.038335723064298, -48.0424191818913 -8.73348062557023, -47.87041415020981 -9.389410358824055 M-47.87041415020981 -9.389410358824055 C-47.725658807878645 -9.825390386293815, -47.580903465547486 -10.261370413763578, -47.2038329276421 -11.39704679590313 M-47.87041415020981 -9.389410358824055 C-47.695374998687875 -9.916600394506682, -47.52033584716594 -10.44379043018931, -47.2038329276421 -11.39704679590313 M-47.2038329276421 -11.39704679590313 C-46.89853214071165 -12.15114564221051, -46.5932313537812 -12.905244488517889, -46.40999155952181 -13.35785032303899 M-47.2038329276421 -11.39704679590313 C-47.008762193708534 -11.878875280155112, -46.813691459774965 -12.360703764407097, -46.40999155952181 -13.35785032303899 M-46.40999155952181 -13.35785032303899 C-46.07690772324419 -14.04950603592188, -45.74382388696656 -14.74116174880477, -45.49215211030901 -15.263763577947552 M-46.40999155952181 -13.35785032303899 C-46.066936019534566 -14.070212492035195, -45.72388047954731 -14.782574661031397, -45.49215211030901 -15.263763577947552 M-45.49215211030901 -15.263763577947552 C-45.15768874063325 -15.85763715889557, -44.823225370957495 -16.451510739843584, -44.45408617917642 -17.106954754247333 M-45.49215211030901 -15.263763577947552 C-45.20098761344692 -15.780755625728593, -44.90982311658483 -16.297747673509633, -44.45408617917642 -17.106954754247333 M-44.45408617917642 -17.106954754247333 C-44.14028328638827 -17.589040265445263, -43.826480393600114 -18.07112577664319, -43.30005940169954 -18.8798497840316 M-44.45408617917642 -17.106954754247333 C-44.141632187348655 -17.58696799133949, -43.82917819552088 -18.066981228431644, -43.30005940169954 -18.8798497840316 M-43.30005940169954 -18.8798497840316 C-42.85943666279048 -19.47024411261244, -42.418813923881416 -20.060638441193284, -42.03481392144499 -20.5751634613382 M-43.30005940169954 -18.8798497840316 C-42.907042604064415 -19.406456488295838, -42.51402580642929 -19.933063192560073, -42.03481392144499 -20.5751634613382 M-42.03481392144499 -20.5751634613382 C-41.51060560018876 -21.190928383784247, -40.986397278932536 -21.806693306230294, -40.66354890348543 -22.18592937862344 M-42.03481392144499 -20.5751634613382 C-41.72037087323396 -20.944526158083193, -41.40592782502292 -21.313888854828186, -40.66354890348543 -22.18592937862344 M-40.66354890348543 -22.18592937862344 C-40.09297609435647 -22.775092648947915, -39.52240328522751 -23.364255919272388, -39.19189916991507 -23.705528553224994 M-40.66354890348543 -22.18592937862344 C-40.11159208706175 -22.755870108078284, -39.55963527063808 -23.325810837533126, -39.19189916991507 -23.705528553224994 M-39.19189916991507 -23.705528553224994 C-38.78367276352187 -24.076268974432466, -38.37544635712867 -24.447009395639935, -37.625912045157044 -25.127716626181414 M-39.19189916991507 -23.705528553224994 C-38.85431084563538 -24.01211733723821, -38.516722521355696 -24.318706121251424, -37.625912045157044 -25.127716626181414 M-37.625912045157044 -25.127716626181414 C-37.24566438784802 -25.43095401407024, -36.86541673053898 -25.73419140195907, -35.97202250621014 -26.446649521642563 M-37.625912045157044 -25.127716626181414 C-37.01455809646395 -25.615255131452333, -36.403204147770865 -26.102793636723252, -35.97202250621014 -26.446649521642563 M-35.97202250621014 -26.446649521642563 C-35.3701805421682 -26.8664684224395, -34.76833857812626 -27.286287323236436, -34.23702673994812 -27.65690746143073 M-35.97202250621014 -26.446649521642563 C-35.5685602782566 -26.7280873062646, -35.16509805030305 -27.00952509088664, -34.23702673994812 -27.65690746143073 M-34.23702673994812 -27.65690746143073 C-33.7329972692442 -27.962453088577394, -33.22896779854028 -28.267998715724058, -32.42805421612995 -28.753517236071847 M-34.23702673994812 -27.65690746143073 C-33.70205522504729 -27.981210337605198, -33.16708371014646 -28.305513213779665, -32.42805421612995 -28.753517236071847 M-32.42805421612995 -28.753517236071847 C-32.01468294143828 -28.969172765301554, -31.601311666746614 -29.184828294531258, -30.552538390879427 -29.73197264077983 M-32.42805421612995 -28.753517236071847 C-31.941417512658152 -29.007395292567402, -31.45478080918635 -29.261273349062957, -30.552538390879427 -29.73197264077983 M-30.552538390879427 -29.73197264077983 C-30.074144966523736 -29.943743218705368, -29.595751542168042 -30.155513796630906, -28.618186161019363 -30.58825299241871 M-30.552538390879427 -29.73197264077983 C-30.005598791261963 -29.97408657714371, -29.458659191644504 -30.21620051350759, -28.618186161019363 -30.58825299241871 M-28.618186161019363 -30.58825299241871 C-27.977049583121705 -30.824197179686607, -27.335913005224043 -31.060141366954504, -26.632946194779507 -31.318839651352057 M-28.618186161019363 -30.58825299241871 C-27.974194856644353 -30.825247745419077, -27.33020355226934 -31.06224249841944, -26.632946194779507 -31.318839651352057 M-26.632946194779507 -31.318839651352057 C-25.901720859316562 -31.535863492637347, -25.17049552385362 -31.75288733392264, -24.604976269013775 -31.92073048028796 M-26.632946194779507 -31.318839651352057 C-26.064306021628266 -31.48760906989017, -25.495665848477024 -31.656378488428278, -24.604976269013775 -31.92073048028796 M-24.604976269013775 -31.92073048028796 C-24.184459178124342 -32.016710762153004, -23.763942087234913 -32.11269104401805, -22.5426097471453 -32.39145218070515 M-24.604976269013775 -31.92073048028796 C-23.845704101627092 -32.094029397780034, -23.086431934240412 -32.26732831527211, -22.5426097471453 -32.39145218070515 M-22.5426097471453 -32.39145218070515 C-21.886046799208852 -32.49760018640581, -21.229483851272406 -32.60374819210647, -20.45432133558872 -32.72907045616712 M-22.5426097471453 -32.39145218070515 C-21.90616803865188 -32.494347140455204, -21.269726330158466 -32.59724210020526, -20.45432133558872 -32.72907045616712 M-20.45432133558872 -32.72907045616712 C-19.63228321466011 -32.80837148504762, -18.8102450937315 -32.88767251392812, -18.348692259363528 -32.9321979607611 M-20.45432133558872 -32.72907045616712 C-19.771064659359084 -32.79498340598662, -19.08780798312945 -32.86089635580611, -18.348692259363528 -32.9321979607611 M-18.348692259363528 -32.9321979607611 C-17.705562244414303 -32.95282188856389, -17.062432229465077 -32.97344581636668, -16.23437500000001 -33 M-18.348692259363528 -32.9321979607611 C-17.891298195852798 -32.94686569811435, -17.433904132342064 -32.96153343546761, -16.23437500000001 -33 M-16.23437500000001 -33 C-16.234375000000007 -33, -16.234375000000004 -33, -16.234375 -33 M-16.23437500000001 -33 C-16.234375000000007 -33, -16.234375000000004 -33, -16.234375 -33" stroke="#526b80" stroke-width="1.3" fill="none" stroke-dasharray="0 0" style="fill:#ffffff !important;stroke:#526b80 !important"></path></g><g class="label" style="color:#152c40 !important" transform="translate(-37.984375, -30)"><rect></rect><foreignObject width="75.96875" height="60"><div style="color: rgb(21, 44, 64) !important; display: table-cell; white-space: nowrap; line-height: 1.5; max-width: 600px; text-align: center;" xmlns="http://www.w3.org/1999/xhtml"><span style="color:#152c40 !important" class="nodeLabel"><p>Title and<br />domain</p></span></div></foreignObject></g></g><g class="node default" id="diagram-svg-flowchart-pg-1" data-look="classic" transform="translate(225.7395248413086, 158.5)"><rect class="basic label-container" style="" x="-59.265625" y="-51" width="118.53125" height="102"></rect><g class="label" style="" transform="translate(-47.265625, -45)"><rect></rect><foreignObject width="94.53125" height="90"><div xmlns="http://www.w3.org/1999/xhtml" style="display: table-cell; white-space: nowrap; line-height: 1.5; max-width: 600px; text-align: center;"><span class="nodeLabel"><p>PG<br />Prompt<br />generation</p></span></div></foreignObject></g></g><g class="node default" id="diagram-svg-flowchart-rating-7" data-look="classic" transform="translate(225.7395248413086, 299.5)"><rect class="basic label-container" style="" x="-69.8046875" y="-36" width="139.609375" height="72"></rect><g class="label" style="" transform="translate(-57.8046875, -30)"><rect></rect><foreignObject width="115.609375" height="60"><div xmlns="http://www.w3.org/1999/xhtml" style="display: table-cell; white-space: nowrap; line-height: 1.5; max-width: 600px; text-align: center;"><span class="nodeLabel"><p>Illustratability<br />rating</p></span></div></foreignObject></g></g><g class="node default" id="diagram-svg-flowchart-ig-2" data-look="classic" transform="translate(454.4992904663086, 200.5)"><rect class="basic label-container" style="" x="-59.265625" y="-51" width="118.53125" height="102"></rect><g class="label" style="" transform="translate(-47.265625, -45)"><rect></rect><foreignObject width="94.53125" height="90"><div xmlns="http://www.w3.org/1999/xhtml" style="display: table-cell; white-space: nowrap; line-height: 1.5; max-width: 600px; text-align: center;"><span class="nodeLabel"><p>IG<br />Image<br />generation</p></span></div></foreignObject></g></g><g class="node default" id="diagram-svg-flowchart-prompttg-6" data-look="classic" transform="translate(910.0715560913086, 74.5)"><rect class="basic label-container" style="" x="-88.4296875" y="-36" width="176.859375" height="72"></rect><g class="label" style="" transform="translate(-76.4296875, -30)"><rect></rect><foreignObject width="152.859375" height="60"><div xmlns="http://www.w3.org/1999/xhtml" style="display: table-cell; white-space: nowrap; line-height: 1.5; max-width: 600px; text-align: center;"><span class="nodeLabel"><p>TG<br />Prompt + domain</p></span></div></foreignObject></g></g><g class="node default" id="diagram-svg-flowchart-direct-4" data-look="classic" transform="translate(910.0715560913086, 158.5)"><rect class="basic label-container" style="" x="-83.9921875" y="-36" width="167.984375" height="72"></rect><g class="label" style="" transform="translate(-71.9921875, -30)"><rect></rect><foreignObject width="143.984375" height="60"><div xmlns="http://www.w3.org/1999/xhtml" style="display: table-cell; white-space: nowrap; line-height: 1.5; max-width: 600px; text-align: center;"><span class="nodeLabel"><p>TG<br />Image + domain</p></span></div></foreignObject></g></g><g class="node default" id="diagram-svg-flowchart-id-3" data-look="classic" transform="translate(673.8137435913086, 242.5)"><rect class="basic label-container" style="" x="-60.359375" y="-51" width="120.71875" height="102"></rect><g class="label" style="" transform="translate(-48.359375, -45)"><rect></rect><foreignObject width="96.71875" height="90"><div xmlns="http://www.w3.org/1999/xhtml" style="display: table-cell; white-space: nowrap; line-height: 1.5; max-width: 600px; text-align: center;"><span class="nodeLabel"><p>ID<br />Image<br />description</p></span></div></foreignObject></g></g><g class="node default" id="diagram-svg-flowchart-indirect-5" data-look="classic" transform="translate(910.0715560913086, 242.5)"><rect class="basic label-container" style="" x="-106.21875" y="-36" width="212.4375" height="72"></rect><g class="label" style="" transform="translate(-94.21875, -30)"><rect></rect><foreignObject width="188.4375" height="60"><div xmlns="http://www.w3.org/1999/xhtml" style="display: table-cell; white-space: nowrap; line-height: 1.5; max-width: 600px; text-align: center;"><span class="nodeLabel"><p>TG<br />Description + domain</p></span></div></foreignObject></g></g></g></g></g></g></g><defs><filter id="diagram-svg-drop-shadow" height="130%" width="130%"><feDropShadow dx="4" dy="4" stdDeviation="0" flood-opacity="0.06" flood-color="#000000"></feDropShadow></filter></defs><defs><filter id="diagram-svg-drop-shadow-small" height="150%" width="150%"><feDropShadow dx="2" dy="2" stdDeviation="0" flood-opacity="0.06" flood-color="#000000"></feDropShadow></filter></defs><linearGradient id="diagram-svg-gradient" gradientUnits="objectBoundingBox" x1="0%" y1="0%" x2="100%" y2="0%"><stop offset="0%" stop-color="#526b80" stop-opacity="1"></stop><stop offset="100%" stop-color="hsl(87.2727272727, 4%, 85.0980392157%)" stop-opacity="1"></stop></linearGradient><text text-anchor="middle" x="520.3951416015625" y="-25" class="flowchartTitleText">All stages are optional. Enabled stages require their inputs.</text></svg>
